<svg width="100" height="100" viewBox="0 0 124 125" fill="none" xmlns="http://www.w3.org/2000/svg">
<rect y="0.793945" width="120" height="120" rx="30" fill="#F1F1F1"/>
<path fill-rule="evenodd" clip-rule="evenodd" d="M85.5 62.794C85.5 77.3375 73.7101 89.1274 59.1666 89.1274C44.6231 89.1274 32.8333 77.3375 32.8333 62.794C32.8333 48.2505 44.6231 36.4607 59.1666 36.4607C68.396 36.4607 76.5164 41.2087 81.2184 48.3953L60.8194 68.7944L48.2568 56.2317L46.4654 58.023L59.9238 71.4814C60.4184 71.976 61.2204 71.976 61.7151 71.4814L82.5414 50.6551C84.4316 54.2875 85.5 58.416 85.5 62.794ZM84.0194 49.1771C86.2381 53.218 87.5 57.8586 87.5 62.794C87.5 78.4421 74.8147 91.1274 59.1666 91.1274C43.5186 91.1274 30.8333 78.4421 30.8333 62.794C30.8333 47.146 43.5186 34.4607 59.1666 34.4607C68.9467 34.4607 77.5694 39.4159 82.6611 46.9526L91.3265 38.2872L93.1179 40.0786L84.0194 49.1771Z" fill="#545454"/>
</svg>
