<svg width="106" height="105" viewBox="0 0 106 105" fill="none" xmlns="http://www.w3.org/2000/svg">
<path d="M53 41.0376C55.1 41.0376 57.0687 41.8688 58.5562 43.3563L73.6062 58.4063C76.6687 61.4688 76.6687 66.5001 73.6062 69.5626L58.5562 84.6126C57.0687 86.1001 55.1 86.9313 53 86.9313C50.9 86.9313 48.9312 86.1001 47.4437 84.6126L32.3937 69.5626C29.3312 66.5001 29.3312 61.4688 32.3937 58.4063L47.4437 43.3563C48.9312 41.8688 50.9 41.0376 53 41.0376ZM53 33.6438C49.1062 33.6438 45.1687 35.1313 42.1937 38.1063L27.1437 53.1563C21.1937 59.1063 21.1937 68.8188 27.1437 74.7688L42.1937 89.8188C45.1687 92.7938 49.1062 94.2813 53 94.2813C56.8937 94.2813 60.8312 92.7938 63.8063 89.8188L78.8562 74.7688C84.8062 68.8188 84.8062 59.1063 78.8562 53.1563L63.8063 38.1063C60.8312 35.1313 56.8937 33.6438 53 33.6438Z" fill="#FB6514"/>
<path d="M53 22.4875C55.1 22.4875 57.0687 23.3187 58.5562 24.8062L73.6062 39.8562C76.6687 42.9187 76.6687 47.95 73.6062 51.0125L58.5562 66.0625C57.0687 67.55 55.1 68.3813 53 68.3813C50.9 68.3813 48.9312 67.55 47.4437 66.0625L32.3937 51.0125C29.3312 47.95 29.3312 42.9187 32.3937 39.8562L47.4437 24.8062C48.9312 23.3187 50.9 22.4875 53 22.4875ZM53 15.0938C49.1062 15.0938 45.1687 16.5813 42.1937 19.5563L27.1437 34.6062C21.1937 40.5562 21.1937 50.2687 27.1437 56.2187L42.1937 71.2687C45.1687 74.2438 49.1062 75.7313 53 75.7313C56.8937 75.7313 60.8312 74.2438 63.8063 71.2687L78.8562 56.2187C84.8062 50.2687 84.8062 40.5562 78.8562 34.6062L63.8063 19.5563C60.8312 16.5813 56.8937 15.0938 53 15.0938Z" fill="#FB6514"/>
</svg>
